<?xml version="1.0" encoding="UTF-8"?>
<svg width="28px" height="20px" viewBox="0 0 28 20" version="1.1" xmlns="http://www.w3.org/2000/svg" xmlns:xlink="http://www.w3.org/1999/xlink">
    <!-- Generator: Sketch 44.1 (41455) - http://www.bohemiancoding.com/sketch -->
    <title>CAT</title>
    <desc>Created with Sketch.</desc>
    <defs>
        <rect id="path-1" x="0" y="0" width="28" height="20" rx="2"></rect>
    </defs>
    <g id="Page-1" stroke="none" stroke-width="1" fill="none" fill-rule="evenodd">
        <g id="Flags" transform="translate(-260.000000, -268.000000)">
            <g id="CAT" transform="translate(260.000000, 268.000000)">
                <mask id="mask-2" fill="white">
                    <use xlink:href="#path-1"></use>
                </mask>
                <g id="Mask">
                    <use fill="#F6A623" fill-rule="evenodd" xlink:href="#path-1"></use>
                    <rect stroke="#F6A623" stroke-width="0.5" x="0.25" y="0.25" width="27.5" height="19.5" rx="2"></rect>
                </g>
                <path d="M2.84217094e-13,0 L28,0 L28,2.66666667 L2.84217094e-13,2.66666667 L2.84217094e-13,0 Z M2.84217094e-13,5.33333333 L28,5.33333333 L28,8 L2.84217094e-13,8 L2.84217094e-13,5.33333333 Z M2.84217094e-13,10.6666667 L28,10.6666667 L28,13.3333333 L2.84217094e-13,13.3333333 L2.84217094e-13,10.6666667 Z M0,16 L28,16 L28,18.6666667 L0,18.6666667 L0,16 Z" id="Rectangle-537" fill="#D0011B" mask="url(#mask-2)"></path>
            </g>
        </g>
    </g>
</svg>